
<global>
amp_veltrack=100
master-volume=10
</global>

<group>
ampeg_release=0.2
group_label=P
loop_mode=loop_continuous
xf_cccurve=gain
xfin_hicc1=25
xfout_hicc1=50
xfout_locc1=26

<region>
hivel=127
key=C3
loop_end=191052
loop_mode=loop_continuous
loop_start=39359
loop_xfade=25861
lovel=0
offset=5306
sample=FieldDrum_Off_Rim Roll_P_D4_RR1.opus
</region>

<region>
hivel=127
key=D3
loop_end=181633
loop_mode=loop_continuous
loop_start=24586
loop_xfade=24586
lovel=0
offset=5887
sample=FieldDrum_Off_Roll_P_D4_RR5.opus
</region>
</group>

<group>
ampeg_release=0.2
group_label=MP
loop_mode=loop_continuous
xf_cccurve=gain
xfin_hicc1=50
xfin_locc1=26
xfout_hicc1=76
xfout_locc1=51

<region>
hivel=127
key=C3
loop_end=154254
loop_mode=loop_continuous
loop_start=20880
loop_xfade=20880
lovel=0
offset=7904
sample=FieldDrum_Off_Rim Roll_MP_D4_RR1.opus
</region>

<region>
hivel=127
key=D3
loop_end=146749
loop_mode=loop_continuous
loop_start=19864
loop_xfade=19864
lovel=0
offset=6709
sample=FieldDrum_Off_Roll_MP_D4_RR1.opus
</region>
</group>

<group>
ampeg_release=0.2
group_label=MF
loop_mode=loop_continuous
xf_cccurve=gain
xfin_hicc1=76
xfin_locc1=51
xfout_hicc1=101
xfout_locc1=77

<region>
hivel=127
key=C3
loop_end=147719
loop_mode=loop_continuous
loop_start=19996
loop_xfade=19996
lovel=0
offset=4510
sample=FieldDrum_Off_Rim Roll_MF_D4_RR1.opus
</region>

<region>
hivel=127
key=D3
loop_end=132788
loop_mode=loop_continuous
loop_start=30670
loop_xfade=23350
lovel=0
offset=1366
sample=FieldDrum_Off_Roll_MF_D4_RR1.opus
</region>
</group>

<group>
ampeg_release=0.2
group_label=F
loop_mode=loop_continuous
xf_cccurve=gain
xfin_hicc1=101
xfin_locc1=77
xfout_hicc1=126
xfout_locc1=102

<region>
hivel=127
key=C3
loop_end=146047
loop_mode=loop_continuous
loop_start=19924
loop_xfade=19924
lovel=0
offset=4507
sample=FieldDrum_Off_Rim Roll_F_D4_RR1.opus
</region>

<region>
hivel=127
key=D3
loop_end=146792
loop_mode=loop_continuous
loop_start=35087
loop_xfade=35087
lovel=0
offset=1324
sample=FieldDrum_Off_Roll_F_D4_RR1.opus
</region>
</group>

<group>
ampeg_release=0.2
group_label=FF
loop_mode=loop_continuous
xf_cccurve=gain
xfin_hicc1=127
xfin_locc1=102
xfout_hicc1=127
xfout_locc1=127

<region>
hivel=127
key=C3
loop_end=146238
loop_mode=loop_continuous
loop_start=19795
loop_xfade=19795
lovel=0
offset=4479
sample=FieldDrum_Off_Rim Roll_FF_D4_RR1.opus
</region>

<region>
hivel=127
key=D3
loop_end=147268
loop_mode=loop_continuous
loop_start=19935
loop_xfade=19935
lovel=0
offset=365
sample=FieldDrum_Off_Roll_FF_D4_RR1.opus
</region>
</group>

<group>
ampeg_attack=0.01
ampeg_release=5.0
group_label=P_Rel
trigger=release
xf_cccurve=gain
xfin_hicc1=25
xfout_hicc1=50
xfout_locc1=26

<region>
hivel=127
key=C3
lovel=0
offset=204538
sample=FieldDrum_Off_Rim Roll_P_D4_RR1.opus
</region>

<region>
hivel=127
key=D3
lovel=0
offset=194024
sample=FieldDrum_Off_Roll_P_D4_RR5.opus
</region>
</group>

<group>
ampeg_attack=0.01
ampeg_release=5.0
group_label=MP_Rel
trigger=release
xf_cccurve=gain
xfin_hicc1=50
xfin_locc1=26
xfout_hicc1=76
xfout_locc1=51

<region>
hivel=127
key=C3
lovel=0
offset=200654
sample=FieldDrum_Off_Rim Roll_MP_D4_RR1.opus
</region>

<region>
hivel=127
key=D3
lovel=0
offset=194991
sample=FieldDrum_Off_Roll_MP_D4_RR1.opus
</region>
</group>

<group>
ampeg_attack=0.01
ampeg_release=5.0
group_label=MF_Rel
trigger=release
xf_cccurve=gain
xfin_hicc1=76
xfin_locc1=51
xfout_hicc1=101
xfout_locc1=77

<region>
hivel=127
key=C3
lovel=0
offset=197182
sample=FieldDrum_Off_Rim Roll_MF_D4_RR1.opus
</region>

<region>
hivel=127
key=D3
lovel=0
offset=188532
sample=FieldDrum_Off_Roll_MF_D4_RR1.opus
</region>
</group>

<group>
ampeg_attack=0.01
ampeg_release=5.0
group_label=F_Rel
trigger=release
xf_cccurve=gain
xfin_hicc1=101
xfin_locc1=77
xfout_hicc1=126
xfout_locc1=102

<region>
hivel=127
key=C3
lovel=0
offset=194491
sample=FieldDrum_Off_Rim Roll_F_D4_RR1.opus
</region>

<region>
hivel=127
key=D3
lovel=0
offset=214037
sample=FieldDrum_Off_Roll_F_D4_RR1.opus
</region>
</group>

<group>
ampeg_attack=0.01
ampeg_release=5.0
group_label=FF_Rel
trigger=release
xf_cccurve=gain
xfin_hicc1=127
xfin_locc1=102
xfout_hicc1=127
xfout_locc1=127

<region>
hivel=127
key=C3
lovel=0
offset=193891
sample=FieldDrum_Off_Rim Roll_FF_D4_RR1.opus
</region>

<region>
hivel=127
key=D3
lovel=0
offset=206695
sample=FieldDrum_Off_Roll_FF_D4_RR1.opus
</region>
</group>